# xmcd
#
# Track frame offsets:
# 150
# 48656
# 116932
# 176999
# 240624
#
# Disc length: 3873 seconds
#
# Revision: 0
# Processed by: cddbd v1.5.2PL0 Copyright (c) Steve Scherf et al.
# Submitted via: Audion 3.0.2 (http://www.panic.com/audion/)
#
DISCID=480f1f05
DTITLE=Kurt Rosenwinkel Yoshis 5.2.01 - Kurt Rosenwinkel Yoshis 5.2.01
DYEAR=1900
DGENRE=
TTITLE0=1
TTITLE1=2
TTITLE2=3
TTITLE3=4
TTITLE4=5
EXTD=
EXTT0=
EXTT1=
EXTT2=
EXTT3=
EXTT4=
PLAYORDER=
